<?xml version="1.0" encoding="utf-8"?>
<!-- Generator: Adobe Illustrator 19.0.0, SVG Export Plug-In . SVG Version: 6.00 Build 0)  -->
<svg version="1.1" id="Layer_1" xmlns="http://www.w3.org/2000/svg" xmlns:xlink="http://www.w3.org/1999/xlink" x="0px" y="0px"
	 viewBox="692 172 770 419" style="enable-background:new 692 172 770 419;" xml:space="preserve">
<style type="text/css">
	.st0{fill:#3A404D;}
	.st1{fill:#6FB423;}
	.st2{fill:#2A69AE;}
</style>
<g id="Layer_1_1_">
	<path class="st0" d="M826.5,223.9c0.1-1.7,0.2-3,0.2-4.6c14.3,1.3,28.3,1.2,42.9-2.6c0,9.5,0,18.8,0,28.2c0.4,0.1,0.9,0.2,1.3,0.2
		c1.2-2.2,2.3-4.5,3.5-6.6c10.7-18.2,27.1-24.3,47.3-22.3c11.2,1.1,20.7,5.6,25.5,16.3c2.3,5,3.9,10.8,4,16.3
		c0.5,25.6,0.4,51.3,0.5,76.9c0,1.9,0,3.9,0,5.8c0.2,12.1,4.5,16.9,16.6,18.5c3.9,0.5,3.9,0.5,3.5,4.1c-20,0-40.1,0-60.3,0
		c0-1.2,0-2.4,0-3.6c1.7-0.3,3.2-0.5,4.6-0.8c8.3-1.6,12.4-5.9,12.5-14.5c0.2-29.4,0.2-58.7-0.1-88.1c0-4.7-1.6-9.5-3.2-14
		c-2.4-6.7-8.3-8.8-14.7-9.6c-12.7-1.7-26.6,5.9-33.3,18c-4.9,8.8-7.5,18.3-7.5,28.4c0,21.1-0.1,42.2,0.1,63.3
		c0.1,11.3,3.4,14.8,14.5,16.9c1.1,0.2,1.9,1.7,2.8,2.6c-1.1,0.6-2.3,1.8-3.4,1.8c-8.4-0.1-16.8-0.7-25.2-0.7
		c-9.2,0-18.5,0.5-27.7,0.8c-0.8,0-1.8,0.3-2.5,0s-1.7-1.1-1.7-1.7c0-0.9,0.6-2,1.3-2.5s1.9-0.3,2.8-0.4
		c10.4-1.6,15.3-4.5,15.7-17.4c0.5-15.6,0.1-31.2,0.1-46.7c0-13.2,0.3-26.5-0.2-39.7c-0.2-4.8-1.4-9.9-3.4-14.2
		C839.9,225.3,833.3,224.6,826.5,223.9z"/>
	<path class="st0" d="M1449.4,287.4c-0.3,13.2-1.7,26.1-7.2,38.4c-7.6,17.1-20.6,27.5-39,31c-12.1,2.4-24.1,2.1-35.8-2.1
		c-15.6-5.6-26.5-16.2-32-31.7c-7.7-21.7-7.8-43.9-2.1-65.9c5.6-21.5,19.8-35.8,41.7-40.1c20.7-4.1,40.5-1,56.3,14.9
		c9.6,9.7,14.2,21.8,16.2,35C1448.6,273.7,1448.8,280.6,1449.4,287.4z M1354.6,287.1c-0.1,14.5,0.8,28.9,5.8,42.7
		c3.8,10.3,9.6,19.1,20.6,22.7c13.9,4.6,28.1-2.8,35.1-17.4c5.1-10.7,7.1-22.1,7.5-33.6c0.4-13.6-0.3-27.2-1.4-40.8
		c-0.9-10.9-4.6-21.2-11.4-30.1c-7.3-9.5-20.4-13.1-31.5-8.6c-10.3,4.2-15.6,12.8-19,22.6C1355.5,258.4,1354.5,272.7,1354.6,287.1z"
		/>
	<path class="st0" d="M1192.7,324.1c-4.4,12-12.1,21.5-23.3,27.8c-26.1,14.5-69.9,6.3-82-34c-7-23.5-5.8-46.9,4.3-69.4
		c7.3-16.2,19.6-27.6,37.1-31.3c15.5-3.3,31-2.6,44.6,7.5c9,6.7,13.8,15.9,16.1,26.6c1.2,5.8,1.5,11.7,2.3,17.6
		c0.5,3.2-0.5,4.3-3.9,4.3c-24.9-0.1-49.9,0-74.8-0.1c-2.4,0-4,0.2-4.3,3.1c-1.4,18.1-0.8,35.8,8.9,52c18.5,30.9,55.2,22.3,67,0
		c0.6-1.1,1.3-2.1,1.9-3.2C1188.6,321.3,1188.6,321.3,1192.7,324.1z M1137.7,268.7L1137.7,268.7c8.5,0,17.1-0.1,25.6,0.1
		c2.6,0,3.6-0.7,3.7-3.5c0.2-9.2-0.6-18.2-3.8-26.8c-3.2-8.3-7.3-16-17-18.1c-10.2-2.2-18.1,2.1-24.4,9.6
		c-8.8,10.5-11.7,23.1-12.5,36.4c0,0.7,2.1,2.2,3.2,2.2C1120.9,268.8,1129.3,268.7,1137.7,268.7z"/>
	<path class="st0" d="M811,324.1c-4.4,12-12.1,21.5-23.3,27.8c-26.1,14.5-69.9,6.3-82-34c-7-23.5-5.8-46.9,4.3-69.4
		c7.3-16.2,19.6-27.6,37.1-31.3c15.5-3.3,31-2.6,44.6,7.5c9,6.7,13.8,15.9,16.1,26.6c1.2,5.8,1.5,11.7,2.3,17.6
		c0.5,3.2-0.5,4.3-3.9,4.3c-24.9-0.1-49.9,0-74.8-0.1c-2.4,0-4,0.2-4.3,3.1c-1.4,18.1-0.8,35.8,8.9,52c18.5,30.9,55.2,22.3,67,0
		c0.6-1.1,1.3-2.1,1.9-3.2C806.9,321.3,806.9,321.3,811,324.1z M756,268.7L756,268.7c8.5,0,17.1-0.1,25.6,0.1c2.6,0,3.6-0.7,3.7-3.5
		c0.2-9.2-0.6-18.2-3.8-26.8c-3.2-8.3-7.3-16-17-18.1c-10.2-2.2-18.1,2.1-24.4,9.6c-8.8,10.5-11.7,23.1-12.5,36.4
		c0,0.7,2.1,2.2,3.2,2.2C739.2,268.8,747.6,268.7,756,268.7z"/>
	<path class="st0" d="M1213,223.2c0.1-1.1,0.2-2.4,0.3-3.9c14.4,1.3,28.3,1.2,42.7-2.7c0,10.4,0,20.6,0,30.8c0.3,0,0.5,0,0.8,0.1
		c2.4-4.1,4.5-8.3,7.1-12.2c5.3-7.8,11.7-14.8,20.9-18c12.4-4.2,26.6-0.9,32,11c2.2,5,2.2,10.3,0.1,15.3c-2.6,6.2-7.1,8.6-14.2,8.4
		c-5.7-0.2-10.2-3.1-11.8-8.1c-2-6-0.5-11.4,4-15.9c1.2-1.3,2.1-2.8,3.2-4.2c-2-0.7-4-1.9-6-1.9c-10.9,0.1-18.1,6.7-24,14.8
		c-8.1,11.1-12.2,23.6-12.2,37.4c0.1,16.8,0,33.6,0,50.5c0,16.8,5.2,22.6,21.9,25c2.1,0.3,6.4-1.5,6,2.7c-0.4,4-4.3,1.7-6.5,1.7
		c-10.5,0-20.9-0.6-31.4-0.6c-9.6,0-19.3,0.5-28.9,0.8c-1.7,0-4.1,0.7-3.8-2.1c0.1-0.9,2.1-2.1,3.4-2.3c11.9-1.8,16.1-5.9,16.2-17.9
		c0.2-28.9,0.2-57.9,0-86.9c0-6.9-1.1-14.1-7.9-18.1C1221.5,225.2,1217.4,224.6,1213,223.2z"/>
	<path class="st0" d="M1065,224.2c-11.4,0-22.7,0.1-34-0.1c-3.8-0.1-4.9,1.2-4.9,4.9c0.1,32.4,0.1,64.8,0.1,97.2
		c0,3.1,0.3,6.3,0.9,9.4c2.6,13.4,17.6,18.5,28.1,9.7c5.6-4.7,8.2-11.2,10.6-17.9c0.7-1.9,1.3-3.9,2-6.1c1.7,0.4,2.9,0.8,4.2,1.1
		c-3.2,20.8-14.1,38-38.9,35.7c-12.6-1.2-25.4-8.7-28.2-25.9c-0.9-5.7-1.7-11.5-1.7-17.2c-0.2-28-0.1-56-0.1-84c0-2.1,0-4.1,0-6.8
		c-8.5,0-16.6,0-24.6,0c-1.2-3.5-0.2-4.7,2.8-4.7c5.9,0.1,11.9-0.2,17.8,0c3.1,0.1,4.1-1,4-4.1c-0.1-10.8,0-21.5-0.1-32.3
		c0-2.9,0.7-4,3.8-4.3c6.3-0.6,12.5-1.8,19.3-2.8c0,1.7,0,3.3,0,4.9c0,11.2,0.1,22.3-0.1,33.5c-0.1,3.7,1,5.2,4.9,5.1
		c10.2-0.2,20.4,0,30.6-0.1C1064.6,219.6,1066.2,220.3,1065,224.2z"/>
</g>
<g id="Layer_2">
	<g>
		<g>
			<path class="st1" d="M825.9,490.7c0,15.4-8.1,24.5-24.4,24.5h-8v-49h8C817.8,466.2,825.9,475.3,825.9,490.7z"/>
			<path class="st1" d="M1013,466.2h-8.8v22.9h8.8c6.8,0,13.5-2.7,13.5-11.4C1026.5,469,1019.8,466.2,1013,466.2z M1013,466.2h-8.8
				v22.9h8.8c6.8,0,13.5-2.7,13.5-11.4C1026.5,469,1019.8,466.2,1013,466.2z M1013,466.2h-8.8v22.9h8.8c6.8,0,13.5-2.7,13.5-11.4
				C1026.5,469,1019.8,466.2,1013,466.2z M1013,466.2h-8.8v22.9h8.8c6.8,0,13.5-2.7,13.5-11.4C1026.5,469,1019.8,466.2,1013,466.2z
				 M1013,466.2h-8.8v22.9h8.8c6.8,0,13.5-2.7,13.5-11.4C1026.5,469,1019.8,466.2,1013,466.2z M1013,466.2h-8.8v22.9h8.8
				c6.8,0,13.5-2.7,13.5-11.4C1026.5,469,1019.8,466.2,1013,466.2z M1013,466.2h-8.8v22.9h8.8c6.8,0,13.5-2.7,13.5-11.4
				C1026.5,469,1019.8,466.2,1013,466.2z M1013,466.2h-8.8v22.9h8.8c6.8,0,13.5-2.7,13.5-11.4C1026.5,469,1019.8,466.2,1013,466.2z
				 M1358.5,400h-566c-25.1,0-47.9,10.2-64.3,26.7c-16.5,16.5-26.7,39.2-26.7,64.3c0,50.2,40.7,91,91,91h566
				c25.1,0,47.9-10.2,64.3-26.7c16.5-16.5,26.7-39.2,26.7-64.3C1449.5,440.7,1408.8,400,1358.5,400z M801.5,528.1h-21.1
				c-1,0-1.6-0.6-1.6-1.6v-71.6c0-1,0.6-1.6,1.6-1.6h21.1c25.7,0,39.2,16.6,39.2,37.4C840.8,511.5,827.2,528.1,801.5,528.1z
				 M921.2,526.5c0,1-0.6,1.6-1.6,1.6h-11.4c-1,0-1.6-0.6-1.6-1.6v-71.6c0-1,0.6-1.6,1.6-1.6h11.4c1,0,1.6,0.6,1.6,1.6V526.5z
				 M1040.7,528.1h-12.2c-0.9,0-1.5-0.3-1.9-1.1l-16.1-24.9h-6.2v24.4c0,1-0.6,1.6-1.6,1.6h-11.4c-1,0-1.6-0.6-1.6-1.6v-71.6
				c0-1,0.6-1.6,1.6-1.6h22.1c17.6,0,27.1,10.2,27.1,24.4c0,10.8-5.4,19.2-15.7,22.8l17,25.8C1042.5,527.4,1042,528.1,1040.7,528.1z
				 M1151,526.5c0,1-0.6,1.6-1.6,1.6H1110c-1,0-1.6-0.6-1.6-1.6v-71.6c0-1,0.6-1.6,1.6-1.6h39.3c1,0,1.6,0.6,1.6,1.6v9.7
				c0,1-0.7,1.6-1.6,1.6H1123v16.9h24.7c1,0,1.6,0.6,1.6,1.6v9.7c0,1-0.6,1.6-1.6,1.6H1123v19.1h26.4c1,0,1.6,0.6,1.6,1.6V526.5z
				 M1252.5,515.2c6.8,0,12.4-2.5,16.9-6.4c0.8-0.6,1.6-0.6,2.2,0.1l7.1,7.6c0.8,0.7,0.8,1.5,0,2.2c-6.6,6.6-15.7,10.8-26.1,10.8
				c-21.4,0-38.5-17-38.5-38.5c0-21.6,17.1-38.6,38.5-38.6c10.4,0,19.5,4.2,26.1,10.8c0.8,0.8,0.8,1.5,0,2.2l-7.1,7.6
				c-0.6,0.8-1.5,0.8-2.2,0.1c-4.5-4-10-6.4-16.9-6.4c-13,0-23.3,10.4-23.3,24.3C1229.2,504.8,1239.5,515.2,1252.5,515.2z
				 M1392.2,464.6c0,1-0.6,1.6-1.6,1.6h-16.1v60.3c0,1-0.6,1.6-1.6,1.6h-11.4c-1,0-1.6-0.6-1.6-1.6v-60.3h-16.2
				c-1,0-1.6-0.6-1.6-1.6v-9.7c0-1,0.6-1.6,1.6-1.6h47c1,0,1.6,0.6,1.6,1.6v9.7H1392.2z M1013,466.2h-8.8v22.9h8.8
				c6.8,0,13.5-2.7,13.5-11.4C1026.5,469,1019.8,466.2,1013,466.2z M1013,466.2h-8.8v22.9h8.8c6.8,0,13.5-2.7,13.5-11.4
				C1026.5,469,1019.8,466.2,1013,466.2z M1013,466.2h-8.8v22.9h8.8c6.8,0,13.5-2.7,13.5-11.4C1026.5,469,1019.8,466.2,1013,466.2z
				 M1013,466.2h-8.8v22.9h8.8c6.8,0,13.5-2.7,13.5-11.4C1026.5,469,1019.8,466.2,1013,466.2z M1013,466.2h-8.8v22.9h8.8
				c6.8,0,13.5-2.7,13.5-11.4C1026.5,469,1019.8,466.2,1013,466.2z M1013,466.2h-8.8v22.9h8.8c6.8,0,13.5-2.7,13.5-11.4
				C1026.5,469,1019.8,466.2,1013,466.2z M1013,466.2h-8.8v22.9h8.8c6.8,0,13.5-2.7,13.5-11.4C1026.5,469,1019.8,466.2,1013,466.2z"
				/>
		</g>
		<path class="st2" d="M1358.5,400H1076v182h282.5c25.1,0,47.9-10.2,64.3-26.7c16.5-16.5,26.7-39.2,26.7-64.3
			C1449.5,440.7,1408.8,400,1358.5,400z M1151,526.5c0,1-0.6,1.6-1.6,1.6H1110c-1,0-1.6-0.6-1.6-1.6v-71.6c0-1,0.6-1.6,1.6-1.6h39.3
			c1,0,1.6,0.6,1.6,1.6v9.7c0,1-0.7,1.6-1.6,1.6H1123v16.9h24.7c1,0,1.6,0.6,1.6,1.6v9.7c0,1-0.6,1.6-1.6,1.6H1123v19.1h26.4
			c1,0,1.6,0.6,1.6,1.6V526.5z M1252.5,515.2c6.8,0,12.4-2.5,16.9-6.4c0.8-0.6,1.6-0.6,2.2,0.1l7.1,7.6c0.8,0.7,0.8,1.5,0,2.2
			c-6.6,6.6-15.7,10.8-26.1,10.8c-21.4,0-38.5-17-38.5-38.5c0-21.6,17.1-38.6,38.5-38.6c10.4,0,19.5,4.2,26.1,10.8
			c0.8,0.8,0.8,1.5,0,2.2l-7.1,7.6c-0.6,0.8-1.5,0.8-2.2,0.1c-4.5-4-10-6.4-16.9-6.4c-13,0-23.3,10.4-23.3,24.3
			C1229.2,504.8,1239.5,515.2,1252.5,515.2z M1392.2,464.6c0,1-0.6,1.6-1.6,1.6h-16.1v60.3c0,1-0.6,1.6-1.6,1.6h-11.4
			c-1,0-1.6-0.6-1.6-1.6v-60.3h-16.2c-1,0-1.6-0.6-1.6-1.6v-9.7c0-1,0.6-1.6,1.6-1.6h47c1,0,1.6,0.6,1.6,1.6v9.7H1392.2z"/>
	</g>
</g>
<g id="Layer_3">
</g>
</svg>
