<?xml version="1.0" encoding="utf-8"?>
<!-- Generator: Adobe Illustrator 19.0.0, SVG Export Plug-In . SVG Version: 6.00 Build 0)  -->
<svg version="1.0" id="Layer_1" xmlns="http://www.w3.org/2000/svg" xmlns:xlink="http://www.w3.org/1999/xlink" x="0px" y="0px"
	 viewBox="0 0 21.8 21.5" style="enable-background:new 0 0 21.8 21.5;" xml:space="preserve">
<style type="text/css">
	.st0{fill:#2AAAE2;}
</style>
<g id="Chevron_Right_Circle_19_">
	<path id="XMLID_3_" class="st0" d="M11,0.6C5.4,0.6,0.9,5.2,0.9,10.7c0,5.6,4.5,10.1,10.1,10.1c5.6,0,10.1-4.5,10.1-10.1
		C21.1,5.2,16.6,0.6,11,0.6z M11,19.5c-4.9,0-8.8-4-8.8-8.8s4-8.8,8.8-8.8s8.8,4,8.8,8.8S15.9,19.5,11,19.5z"/>
	<path id="XMLID_2_" class="st0" d="M9.6,5.9C9.4,5.6,9,5.6,8.7,5.9c-0.2,0.2-0.2,0.7,0,0.9l3.9,4l-3.9,4c-0.2,0.2-0.2,0.7,0,0.9
		c0.2,0.2,0.6,0.2,0.9,0l4.3-4.4c0.2-0.2,0.2-0.7,0-0.9L9.6,5.9z"/>
</g>
</svg>
